<?xml version="1.0" encoding="UTF-8" standalone="no"?>
<svg xmlns="http://www.w3.org/2000/svg" width="256" height="256" viewBox="0 0 256 256" role="img" aria-label="SuppleMart favicon">
  <defs>
    <linearGradient id="g1" x1="0" x2="1">
      <stop offset="0%" stop-color="#34d399" />
      <stop offset="100%" stop-color="#60a5fa" />
    </linearGradient>
    <filter id="shadow" x="-20%" y="-20%" width="140%" height="140%">
      <feDropShadow dx="0" dy="6" stdDeviation="8" flood-color="#000" flood-opacity="0.4" />
    </filter>
  </defs>

  <!-- Background rounded square -->
  <rect width="100%" height="100%" rx="36" ry="36" fill="#0b1220" />

  <!-- subtle bag outline (very light, behind pill) -->
  <g transform="translate(40,44)" opacity="0.12">
    <rect x="0" y="30" width="176" height="128" rx="16" fill="#fff" />
    <path d="M44 30 C44 12 132 12 132 30" fill="none" stroke="#fff" stroke-width="6" stroke-linecap="round" />
  </g>

  <!-- Capsule / pill -->
  <g transform="translate(36,40)" filter="url(#shadow)">
    <rect x="12" y="36" width="196" height="84" rx="42" fill="url(#g1)" />
    <!-- pill dividing line -->
    <path d="M110 36 v84" stroke="#ffffff" stroke-opacity="0.14" stroke-width="6" stroke-linecap="round" />
    <!-- left highlight -->
    <path d="M34 48 C60 24 96 22 110 42" fill="none" stroke="#ffffff" stroke-opacity="0.18" stroke-width="6" stroke-linecap="round" />
  </g>

  <!-- Leaf (supplement / natural) overlapping pill -->
  <path d="M168 96 C190 72 214 74 206 100 C200 120 170 136 148 140 C150 120 156 108 168 96 Z" fill="#10b981" transform="translate(0,4)" opacity="0.95" />

  <!-- Small 'S' monogram (subtle) centered on pill -->
  <path d="M96 112 C104 100 132 100 140 92 C148 84 124 76 116 86 C108 96 124 110 140 106" fill="none" stroke="#07203f" stroke-width="6" stroke-linecap="round" stroke-linejoin="round" transform="translate(0,0)" opacity="0.95" />

  <!-- small accent spark -->
  <circle cx="196" cy="60" r="6" fill="#fef3c7" opacity="0.9" />
</svg>